<?xml version="1.0" encoding="UTF-8" standalone="no"?>
<!DOCTYPE svg PUBLIC "-//W3C//DTD SVG 1.1//EN"
 "http://www.w3.org/Graphics/SVG/1.1/DTD/svg11.dtd">
<!-- Generated by graphviz version 2.34.0 (20131101.2016)
 -->
<!-- Title: graphname Pages: 1 -->
<svg width="656pt" height="220pt"
 viewBox="0.00 0.00 656.00 220.00" xmlns="http://www.w3.org/2000/svg" xmlns:xlink="http://www.w3.org/1999/xlink">
<g id="graph0" class="graph" transform="scale(1 1) rotate(0) translate(4 216)">
<title>graphname</title>
<polygon fill="white" stroke="white" points="-4,4 -4,-216 652,-216 652,4 -4,4"/>
<!-- stable1 -->
<g id="node1" class="node"><title>stable1</title>
<ellipse fill="none" stroke="black" cx="37" cy="-18" rx="37.5442" ry="18"/>
<text text-anchor="start" x="16" y="-15.3" font-family="Times,serif" font-style="italic" font-size="14.00">stable1</text>
</g>
<!-- unstable1 -->
<g id="node2" class="node"><title>unstable1</title>
<ellipse fill="none" stroke="black" cx="357" cy="-18" rx="47.169" ry="18"/>
<text text-anchor="start" x="328.5" y="-15.3" font-family="Times,serif" font-style="italic" font-size="14.00">unstable1</text>
</g>
<!-- inelastic1 -->
<g id="node3" class="node"><title>inelastic1</title>
<ellipse fill="none" stroke="black" cx="139" cy="-18" rx="46.2191" ry="18"/>
<text text-anchor="start" x="111.5" y="-15.3" font-family="Times,serif" font-style="italic" font-size="14.00">inelastic1</text>
</g>
<!-- inelastic2 -->
<g id="node4" class="node"><title>inelastic2</title>
<ellipse fill="none" stroke="black" cx="469" cy="-18" rx="46.2191" ry="18"/>
<text text-anchor="start" x="441.5" y="-15.3" font-family="Times,serif" font-style="italic" font-size="14.00">inelastic2</text>
</g>
<!-- component1 -->
<g id="node5" class="node"><title>component1</title>
<ellipse fill="none" stroke="black" cx="193" cy="-106" rx="57.2927" ry="18"/>
<text text-anchor="start" x="157" y="-103.3" font-family="Times,serif" font-style="italic" font-size="14.00">component1</text>
</g>
<!-- component1&#45;&gt;stable1 -->
<g id="edge1" class="edge"><title>component1&#45;&gt;stable1</title>
<path fill="none" stroke="black" d="M136.637,-102.534C109.381,-98.6132 77.9093,-89.692 56,-70 49.1308,-63.826 44.7372,-54.9311 41.9302,-46.2935"/>
<polygon fill="black" stroke="black" points="45.2648,-45.2137 39.3106,-36.4502 38.5002,-47.014 45.2648,-45.2137"/>
<text text-anchor="middle" x="94" y="-58.3" font-family="Times,serif" font-size="14.00"> STABILITY</text>
</g>
<!-- component1&#45;&gt;inelastic1 -->
<g id="edge2" class="edge"><title>component1&#45;&gt;inelastic1</title>
<path fill="none" stroke="black" d="M161.085,-90.9015C152.759,-85.5996 144.787,-78.693 140,-70 136.079,-62.8802 134.841,-54.3102 134.866,-46.245"/>
<polygon fill="black" stroke="black" points="138.37,-46.2986 135.507,-36.0978 131.384,-45.8571 138.37,-46.2986"/>
<text text-anchor="middle" x="182.5" y="-58.3" font-family="Times,serif" font-size="14.00"> ELASTICITY</text>
</g>
<!-- open1 -->
<g id="node6" class="node"><title>open1</title>
<ellipse fill="none" stroke="black" cx="247" cy="-18" rx="34.1708" ry="18"/>
<text text-anchor="start" x="228.5" y="-15.3" font-family="Times,serif" font-style="italic" font-size="14.00">open1</text>
</g>
<!-- component1&#45;&gt;open1 -->
<g id="edge3" class="edge"><title>component1&#45;&gt;open1</title>
<path fill="none" stroke="black" d="M210.177,-88.4991C215.367,-82.9444 220.798,-76.4991 225,-70 229.913,-62.4008 234.181,-53.5197 237.616,-45.3177"/>
<polygon fill="black" stroke="black" points="240.964,-46.3683 241.38,-35.7816 234.453,-43.798 240.964,-46.3683"/>
<text text-anchor="middle" x="279.5" y="-58.3" font-family="Times,serif" font-size="14.00"> FILLEDNESS</text>
</g>
<!-- component2 -->
<g id="node7" class="node"><title>component2</title>
<ellipse fill="none" stroke="black" cx="413" cy="-106" rx="57.2927" ry="18"/>
<text text-anchor="start" x="377" y="-103.3" font-family="Times,serif" font-style="italic" font-size="14.00">component2</text>
</g>
<!-- component2&#45;&gt;unstable1 -->
<g id="edge4" class="edge"><title>component2&#45;&gt;unstable1</title>
<path fill="none" stroke="black" d="M387.223,-89.8037C380.02,-84.398 372.845,-77.7094 368,-70 363.527,-62.8822 360.851,-54.222 359.258,-46.0733"/>
<polygon fill="black" stroke="black" points="362.718,-45.5454 357.764,-36.1799 355.796,-46.5903 362.718,-45.5454"/>
<text text-anchor="middle" x="406" y="-58.3" font-family="Times,serif" font-size="14.00"> STABILITY</text>
</g>
<!-- component2&#45;&gt;inelastic2 -->
<g id="edge5" class="edge"><title>component2&#45;&gt;inelastic2</title>
<path fill="none" stroke="black" d="M429.108,-88.6606C434.219,-83.014 439.663,-76.4737 444,-70 449.129,-62.3457 453.844,-53.4847 457.764,-45.3177"/>
<polygon fill="black" stroke="black" points="460.976,-46.7102 461.979,-36.1629 454.618,-43.7831 460.976,-46.7102"/>
<text text-anchor="middle" x="495.5" y="-58.3" font-family="Times,serif" font-size="14.00"> ELASTICITY</text>
</g>
<!-- open2 -->
<g id="node8" class="node"><title>open2</title>
<ellipse fill="none" stroke="black" cx="574" cy="-18" rx="34.1708" ry="18"/>
<text text-anchor="start" x="555.5" y="-15.3" font-family="Times,serif" font-style="italic" font-size="14.00">open2</text>
</g>
<!-- component2&#45;&gt;open2 -->
<g id="edge6" class="edge"><title>component2&#45;&gt;open2</title>
<path fill="none" stroke="black" d="M466.5,-99.5456C491.365,-94.8635 520.185,-86.1637 542,-70 550.602,-63.6263 557.443,-54.1892 562.555,-45.1601"/>
<polygon fill="black" stroke="black" points="565.784,-46.5358 567.259,-36.0441 559.563,-43.3263 565.784,-46.5358"/>
<text text-anchor="middle" x="602.5" y="-58.3" font-family="Times,serif" font-size="14.00"> FILLEDNESS</text>
</g>
<!-- span1 -->
<g id="node9" class="node"><title>span1</title>
<ellipse fill="none" stroke="black" cx="314" cy="-194" rx="33.1991" ry="18"/>
<text text-anchor="start" x="296" y="-191.3" font-family="Times,serif" font-style="italic" font-size="14.00">span1</text>
</g>
<!-- span1&#45;&gt;component1 -->
<g id="edge7" class="edge"><title>span1&#45;&gt;component1</title>
<path fill="none" stroke="black" d="M288.348,-182.276C274.875,-176.09 258.422,-167.634 245,-158 234.085,-150.166 223.273,-140.049 214.359,-130.895"/>
<polygon fill="black" stroke="black" points="216.774,-128.355 207.356,-123.502 211.692,-133.169 216.774,-128.355"/>
<text text-anchor="middle" x="298" y="-146.3" font-family="Times,serif" font-size="14.00"> LEFT SUPPORT</text>
</g>
<!-- span1&#45;&gt;component2 -->
<g id="edge8" class="edge"><title>span1&#45;&gt;component2</title>
<path fill="none" stroke="black" d="M330.794,-178.411C346.103,-165.113 368.965,-145.252 386.697,-129.849"/>
<polygon fill="black" stroke="black" points="389.183,-132.326 394.437,-123.125 384.592,-127.041 389.183,-132.326"/>
<text text-anchor="middle" x="430.5" y="-146.3" font-family="Times,serif" font-size="14.00"> RIGHT SUPPORT</text>
</g>
</g>
</svg>
