<?xml version="1.0" encoding="UTF-8" standalone="no"?>
<!DOCTYPE svg PUBLIC "-//W3C//DTD SVG 1.1//EN"
 "http://www.w3.org/Graphics/SVG/1.1/DTD/svg11.dtd">
<!-- Generated by graphviz version 2.34.0 (20131102.0122)
 -->
<!-- Title: graphname Pages: 1 -->
<svg width="1144pt" height="396pt"
 viewBox="0.00 0.00 1144.00 396.00" xmlns="http://www.w3.org/2000/svg" xmlns:xlink="http://www.w3.org/1999/xlink">
<g id="graph0" class="graph" transform="scale(1 1) rotate(0) translate(4 392)">
<title>graphname</title>
<polygon fill="white" stroke="white" points="-4,4 -4,-392 1140,-392 1140,4 -4,4"/>
<!-- open1/filled1 -->
<g id="node1" class="node"><title>open1/filled1</title>
<ellipse fill="none" stroke="black" cx="231" cy="-370" rx="59.1941" ry="18"/>
<text text-anchor="start" x="193" y="-367.3" font-family="Times,serif" font-style="italic" font-size="14.00">open1/filled1</text>
</g>
<!-- component1/component3 -->
<g id="node2" class="node"><title>component1/component3</title>
<ellipse fill="none" stroke="black" cx="230" cy="-282" rx="105.411" ry="18"/>
<text text-anchor="start" x="156.5" y="-279.3" font-family="Times,serif" font-style="italic" font-size="14.00">component1/component3</text>
</g>
<!-- open1/filled1&#45;&gt;component1/component3 -->
<g id="edge1" class="edge"><title>open1/filled1&#45;&gt;component1/component3</title>
<path fill="none" stroke="black" d="M220.903,-352.126C218.094,-346.551 215.423,-340.188 214,-334 212.157,-325.988 213.506,-317.413 216.058,-309.625"/>
<polygon fill="black" stroke="black" points="219.331,-310.867 219.785,-300.282 212.829,-308.274 219.331,-310.867"/>
<text text-anchor="middle" x="220" y="-322.3" font-family="Times,serif" font-size="14.00"> 1</text>
</g>
<!-- component1/component3&#45;&gt;open1/filled1 -->
<g id="edge7" class="edge"><title>component1/component3&#45;&gt;open1/filled1</title>
<path fill="none" stroke="black" d="M230.199,-300.084C230.336,-311.861 230.521,-327.774 230.678,-341.342"/>
<polygon fill="black" stroke="black" points="227.182,-341.638 230.798,-351.597 234.181,-341.557 227.182,-341.638"/>
<text text-anchor="middle" x="246.5" y="-322.3" font-family="Times,serif" font-size="14.00"> 0.25</text>
</g>
<!-- inelastic1/elastic1 -->
<g id="node7" class="node"><title>inelastic1/elastic1</title>
<ellipse fill="none" stroke="black" cx="77" cy="-194" rx="77.0154" ry="18"/>
<text text-anchor="start" x="25.5" y="-191.3" font-family="Times,serif" font-style="italic" font-size="14.00">inelastic1/elastic1</text>
</g>
<!-- component1/component3&#45;&gt;inelastic1/elastic1 -->
<g id="edge8" class="edge"><title>component1/component3&#45;&gt;inelastic1/elastic1</title>
<path fill="none" stroke="black" d="M149.656,-270.199C120.564,-264.613 92.5035,-256.682 83,-246 77.2704,-239.56 75.0129,-230.71 74.4221,-222.188"/>
<polygon fill="black" stroke="black" points="77.9221,-222.136 74.4067,-212.141 70.9221,-222.147 77.9221,-222.136"/>
<text text-anchor="middle" x="98.5" y="-234.3" font-family="Times,serif" font-size="14.00"> 0.25</text>
</g>
<!-- span1/span2 -->
<g id="node8" class="node"><title>span1/span2</title>
<ellipse fill="none" stroke="black" cx="231" cy="-194" rx="59.2173" ry="18"/>
<text text-anchor="start" x="193.5" y="-191.3" font-family="Times,serif" font-style="italic" font-size="14.00">span1/span2</text>
</g>
<!-- component1/component3&#45;&gt;span1/span2 -->
<g id="edge9" class="edge"><title>component1/component3&#45;&gt;span1/span2</title>
<path fill="none" stroke="black" d="M213.57,-264.072C206.195,-254.392 199.96,-241.853 204,-230 205.21,-226.45 206.943,-222.979 208.953,-219.688"/>
<polygon fill="black" stroke="black" points="211.853,-221.649 214.76,-211.46 206.134,-217.613 211.853,-221.649"/>
<text text-anchor="middle" x="219.5" y="-234.3" font-family="Times,serif" font-size="14.00"> 0.25</text>
</g>
<!-- stable1/unstable2 -->
<g id="node9" class="node"><title>stable1/unstable2</title>
<ellipse fill="none" stroke="black" cx="385" cy="-194" rx="76.5394" ry="18"/>
<text text-anchor="start" x="334" y="-191.3" font-family="Times,serif" font-style="italic" font-size="14.00">stable1/unstable2</text>
</g>
<!-- component1/component3&#45;&gt;stable1/unstable2 -->
<g id="edge10" class="edge"><title>component1/component3&#45;&gt;stable1/unstable2</title>
<path fill="none" stroke="black" d="M259.519,-264.622C284.614,-250.698 320.775,-230.635 347.837,-215.619"/>
<polygon fill="black" stroke="black" points="349.591,-218.649 356.637,-210.737 346.194,-212.528 349.591,-218.649"/>
<text text-anchor="middle" x="337.5" y="-234.3" font-family="Times,serif" font-size="14.00"> 0.25</text>
</g>
<!-- stable1/stable2 -->
<g id="node3" class="node"><title>stable1/stable2</title>
<ellipse fill="none" stroke="black" cx="617" cy="-370" rx="66.4165" ry="18"/>
<text text-anchor="start" x="573.5" y="-367.3" font-family="Times,serif" font-style="italic" font-size="14.00">stable1/stable2</text>
</g>
<!-- component1/component4 -->
<g id="node4" class="node"><title>component1/component4</title>
<ellipse fill="none" stroke="black" cx="618" cy="-282" rx="105.411" ry="18"/>
<text text-anchor="start" x="544.5" y="-279.3" font-family="Times,serif" font-style="italic" font-size="14.00">component1/component4</text>
</g>
<!-- stable1/stable2&#45;&gt;component1/component4 -->
<g id="edge2" class="edge"><title>stable1/stable2&#45;&gt;component1/component4</title>
<path fill="none" stroke="black" d="M607.003,-352.182C602.337,-342.326 598.337,-329.576 601,-318 601.653,-315.161 602.568,-312.285 603.639,-309.466"/>
<polygon fill="black" stroke="black" points="606.88,-310.792 607.724,-300.231 600.478,-307.961 606.88,-310.792"/>
<text text-anchor="middle" x="607" y="-322.3" font-family="Times,serif" font-size="14.00"> 1</text>
</g>
<!-- component1/component4&#45;&gt;stable1/stable2 -->
<g id="edge4" class="edge"><title>component1/component4&#45;&gt;stable1/stable2</title>
<path fill="none" stroke="black" d="M617.801,-300.084C617.664,-311.861 617.479,-327.774 617.322,-341.342"/>
<polygon fill="black" stroke="black" points="613.819,-341.557 617.202,-351.597 620.818,-341.638 613.819,-341.557"/>
<text text-anchor="middle" x="633.5" y="-322.3" font-family="Times,serif" font-size="14.00"> 0.33</text>
</g>
<!-- open1/open3 -->
<g id="node5" class="node"><title>open1/open3</title>
<ellipse fill="none" stroke="black" cx="539" cy="-194" rx="59.1941" ry="18"/>
<text text-anchor="start" x="501" y="-191.3" font-family="Times,serif" font-style="italic" font-size="14.00">open1/open3</text>
</g>
<!-- component1/component4&#45;&gt;open1/open3 -->
<g id="edge5" class="edge"><title>component1/component4&#45;&gt;open1/open3</title>
<path fill="none" stroke="black" d="M563.779,-266.354C554.401,-261.396 545.813,-254.79 540,-246 535.397,-239.04 534.047,-230.295 534.179,-222.022"/>
<polygon fill="black" stroke="black" points="537.674,-222.217 535.005,-211.964 530.698,-221.644 537.674,-222.217"/>
<text text-anchor="middle" x="555.5" y="-234.3" font-family="Times,serif" font-size="14.00"> 0.33</text>
</g>
<!-- inelastic1/elastic2 -->
<g id="node6" class="node"><title>inelastic1/elastic2</title>
<ellipse fill="none" stroke="black" cx="694" cy="-194" rx="77.0154" ry="18"/>
<text text-anchor="start" x="642.5" y="-191.3" font-family="Times,serif" font-style="italic" font-size="14.00">inelastic1/elastic2</text>
</g>
<!-- component1/component4&#45;&gt;inelastic1/elastic2 -->
<g id="edge6" class="edge"><title>component1/component4&#45;&gt;inelastic1/elastic2</title>
<path fill="none" stroke="black" d="M621.75,-263.972C624.761,-253.319 629.859,-239.805 638,-230 642.33,-224.785 647.647,-220.112 653.265,-216.008"/>
<polygon fill="black" stroke="black" points="655.267,-218.88 661.629,-210.407 651.373,-213.063 655.267,-218.88"/>
<text text-anchor="middle" x="653.5" y="-234.3" font-family="Times,serif" font-size="14.00"> 0.33</text>
</g>
<!-- open1/open3&#45;&gt;component1/component4 -->
<g id="edge3" class="edge"><title>open1/open3&#45;&gt;component1/component4</title>
<path fill="none" stroke="black" d="M556.558,-211.397C562.537,-217.155 569.177,-223.749 575,-230 582.777,-238.348 590.936,-247.824 598.032,-256.323"/>
<polygon fill="black" stroke="black" points="595.394,-258.625 604.462,-264.104 600.79,-254.166 595.394,-258.625"/>
<text text-anchor="middle" x="595" y="-234.3" font-family="Times,serif" font-size="14.00"> 1</text>
</g>
<!-- inelastic1/elastic2&#45;&gt;component1/component4 -->
<g id="edge17" class="edge"><title>inelastic1/elastic2&#45;&gt;component1/component4</title>
<path fill="none" stroke="black" d="M688.075,-212.373C683.89,-222.899 677.51,-236.151 669,-246 665.087,-250.529 660.461,-254.745 655.617,-258.569"/>
<polygon fill="black" stroke="black" points="653.349,-255.891 647.347,-264.622 657.484,-261.54 653.349,-255.891"/>
<text text-anchor="middle" x="686" y="-234.3" font-family="Times,serif" font-size="14.00"> 1</text>
</g>
<!-- inelastic1/elastic1&#45;&gt;component1/component3 -->
<g id="edge16" class="edge"><title>inelastic1/elastic1&#45;&gt;component1/component3</title>
<path fill="none" stroke="black" d="M105.254,-210.881C129.684,-224.613 165.205,-244.579 192.1,-259.697"/>
<polygon fill="black" stroke="black" points="190.429,-262.773 200.862,-264.622 193.859,-256.671 190.429,-262.773"/>
<text text-anchor="middle" x="174" y="-234.3" font-family="Times,serif" font-size="14.00"> 1</text>
</g>
<!-- span1/span2&#45;&gt;component1/component3 -->
<g id="edge18" class="edge"><title>span1/span2&#45;&gt;component1/component3</title>
<path fill="none" stroke="black" d="M233.604,-211.995C234.806,-221.91 235.806,-234.66 235,-246 234.817,-248.572 234.56,-251.241 234.257,-253.908"/>
<polygon fill="black" stroke="black" points="230.769,-253.59 232.928,-263.962 237.709,-254.507 230.769,-253.59"/>
<text text-anchor="middle" x="247.5" y="-234.3" font-family="Times,serif" font-size="14.00"> 0.5</text>
</g>
<!-- component2/component4 -->
<g id="node13" class="node"><title>component2/component4</title>
<ellipse fill="none" stroke="black" cx="231" cy="-106" rx="105.411" ry="18"/>
<text text-anchor="start" x="157.5" y="-103.3" font-family="Times,serif" font-style="italic" font-size="14.00">component2/component4</text>
</g>
<!-- span1/span2&#45;&gt;component2/component4 -->
<g id="edge19" class="edge"><title>span1/span2&#45;&gt;component2/component4</title>
<path fill="none" stroke="black" d="M217.733,-176.123C214.184,-170.649 210.828,-164.345 209,-158 207.031,-151.167 207.031,-148.833 209,-142 209.914,-138.828 211.21,-135.665 212.721,-132.612"/>
<polygon fill="black" stroke="black" points="215.792,-134.292 217.733,-123.877 209.721,-130.809 215.792,-134.292"/>
<text text-anchor="middle" x="220.5" y="-146.3" font-family="Times,serif" font-size="14.00"> 0.5</text>
</g>
<!-- stable1/unstable2&#45;&gt;component1/component3 -->
<g id="edge25" class="edge"><title>stable1/unstable2&#45;&gt;component1/component3</title>
<path fill="none" stroke="black" d="M379.608,-212.009C375.218,-223.212 367.936,-237.357 357,-246 345.556,-255.045 331.93,-261.755 317.922,-266.733"/>
<polygon fill="black" stroke="black" points="316.605,-263.481 308.184,-269.91 318.776,-270.136 316.605,-263.481"/>
<text text-anchor="middle" x="377" y="-234.3" font-family="Times,serif" font-size="14.00"> 1</text>
</g>
<!-- open2/filled1 -->
<g id="node10" class="node"><title>open2/filled1</title>
<ellipse fill="none" stroke="black" cx="959" cy="-370" rx="59.1941" ry="18"/>
<text text-anchor="start" x="921" y="-367.3" font-family="Times,serif" font-style="italic" font-size="14.00">open2/filled1</text>
</g>
<!-- component2/component3 -->
<g id="node11" class="node"><title>component2/component3</title>
<ellipse fill="none" stroke="black" cx="959" cy="-282" rx="105.411" ry="18"/>
<text text-anchor="start" x="885.5" y="-279.3" font-family="Times,serif" font-style="italic" font-size="14.00">component2/component3</text>
</g>
<!-- open2/filled1&#45;&gt;component2/component3 -->
<g id="edge11" class="edge"><title>open2/filled1&#45;&gt;component2/component3</title>
<path fill="none" stroke="black" d="M948.903,-352.126C946.094,-346.551 943.423,-340.188 942,-334 940.406,-327.07 940.406,-324.93 942,-318 942.653,-315.161 943.568,-312.285 944.639,-309.466"/>
<polygon fill="black" stroke="black" points="947.88,-310.792 948.724,-300.231 941.478,-307.961 947.88,-310.792"/>
<text text-anchor="middle" x="948" y="-322.3" font-family="Times,serif" font-size="14.00"> 1</text>
</g>
<!-- component2/component3&#45;&gt;open2/filled1 -->
<g id="edge13" class="edge"><title>component2/component3&#45;&gt;open2/filled1</title>
<path fill="none" stroke="black" d="M959,-300.084C959,-311.861 959,-327.774 959,-341.342"/>
<polygon fill="black" stroke="black" points="955.5,-341.597 959,-351.597 962.5,-341.597 955.5,-341.597"/>
<text text-anchor="middle" x="974.5" y="-322.3" font-family="Times,serif" font-size="14.00"> 0.33</text>
</g>
<!-- inelastic2/elastic1 -->
<g id="node14" class="node"><title>inelastic2/elastic1</title>
<ellipse fill="none" stroke="black" cx="867" cy="-194" rx="77.0154" ry="18"/>
<text text-anchor="start" x="815.5" y="-191.3" font-family="Times,serif" font-style="italic" font-size="14.00">inelastic2/elastic1</text>
</g>
<!-- component2/component3&#45;&gt;inelastic2/elastic1 -->
<g id="edge14" class="edge"><title>component2/component3&#45;&gt;inelastic2/elastic1</title>
<path fill="none" stroke="black" d="M916.187,-265.508C906.343,-260.439 896.56,-253.998 889,-246 882.621,-239.25 877.927,-230.361 874.555,-221.897"/>
<polygon fill="black" stroke="black" points="877.802,-220.58 871.18,-212.31 871.199,-222.905 877.802,-220.58"/>
<text text-anchor="middle" x="904.5" y="-234.3" font-family="Times,serif" font-size="14.00"> 0.33</text>
</g>
<!-- unstable1/unstable2 -->
<g id="node15" class="node"><title>unstable1/unstable2</title>
<ellipse fill="none" stroke="black" cx="1049" cy="-194" rx="86.1637" ry="18"/>
<text text-anchor="start" x="990.5" y="-191.3" font-family="Times,serif" font-style="italic" font-size="14.00">unstable1/unstable2</text>
</g>
<!-- component2/component3&#45;&gt;unstable1/unstable2 -->
<g id="edge15" class="edge"><title>component2/component3&#45;&gt;unstable1/unstable2</title>
<path fill="none" stroke="black" d="M967.835,-264.06C973.934,-253.441 982.77,-239.934 993,-230 997.974,-225.17 1003.72,-220.67 1009.6,-216.612"/>
<polygon fill="black" stroke="black" points="1011.76,-219.383 1018.24,-210.997 1007.94,-213.515 1011.76,-219.383"/>
<text text-anchor="middle" x="1008.5" y="-234.3" font-family="Times,serif" font-size="14.00"> 0.33</text>
</g>
<!-- unstable1/stable2 -->
<g id="node12" class="node"><title>unstable1/stable2</title>
<ellipse fill="none" stroke="black" cx="96" cy="-18" rx="76.5394" ry="18"/>
<text text-anchor="start" x="45" y="-15.3" font-family="Times,serif" font-style="italic" font-size="14.00">unstable1/stable2</text>
</g>
<!-- unstable1/stable2&#45;&gt;component2/component4 -->
<g id="edge12" class="edge"><title>unstable1/stable2&#45;&gt;component2/component4</title>
<path fill="none" stroke="black" d="M121.492,-35.2391C142.672,-48.7315 173.011,-68.0586 196.386,-82.9498"/>
<polygon fill="black" stroke="black" points="194.656,-85.9974 204.971,-88.4183 198.417,-80.0936 194.656,-85.9974"/>
<text text-anchor="middle" x="182" y="-58.3" font-family="Times,serif" font-size="14.00"> 1</text>
</g>
<!-- component2/component4&#45;&gt;span1/span2 -->
<g id="edge21" class="edge"><title>component2/component4&#45;&gt;span1/span2</title>
<path fill="none" stroke="black" d="M231.586,-124.088C231.755,-129.784 231.917,-136.165 232,-142 232.102,-149.11 232.102,-150.89 232,-158 231.964,-160.553 231.912,-163.21 231.852,-165.869"/>
<polygon fill="black" stroke="black" points="228.352,-165.823 231.586,-175.912 235.349,-166.008 228.352,-165.823"/>
<text text-anchor="middle" x="248.5" y="-146.3" font-family="Times,serif" font-size="14.00"> 0.25</text>
</g>
<!-- component2/component4&#45;&gt;unstable1/stable2 -->
<g id="edge20" class="edge"><title>component2/component4&#45;&gt;unstable1/stable2</title>
<path fill="none" stroke="black" d="M157.832,-92.9372C143.013,-87.7938 128.477,-80.459 117,-70 110.082,-63.6954 105.385,-54.7697 102.222,-46.1437"/>
<polygon fill="black" stroke="black" points="105.482,-44.841 99.1722,-36.3304 98.7978,-46.9186 105.482,-44.841"/>
<text text-anchor="middle" x="132.5" y="-58.3" font-family="Times,serif" font-size="14.00"> 0.25</text>
</g>
<!-- open2/open3 -->
<g id="node16" class="node"><title>open2/open3</title>
<ellipse fill="none" stroke="black" cx="250" cy="-18" rx="59.1941" ry="18"/>
<text text-anchor="start" x="212" y="-15.3" font-family="Times,serif" font-style="italic" font-size="14.00">open2/open3</text>
</g>
<!-- component2/component4&#45;&gt;open2/open3 -->
<g id="edge22" class="edge"><title>component2/component4&#45;&gt;open2/open3</title>
<path fill="none" stroke="black" d="M213.808,-88.0707C205.911,-78.1776 199.411,-65.4276 205,-54 207.332,-49.2322 210.661,-44.9261 214.468,-41.0975"/>
<polygon fill="black" stroke="black" points="216.999,-43.5349 222.24,-34.3275 212.401,-38.2565 216.999,-43.5349"/>
<text text-anchor="middle" x="220.5" y="-58.3" font-family="Times,serif" font-size="14.00"> 0.25</text>
</g>
<!-- inelastic2/elastic2 -->
<g id="node17" class="node"><title>inelastic2/elastic2</title>
<ellipse fill="none" stroke="black" cx="405" cy="-18" rx="77.0154" ry="18"/>
<text text-anchor="start" x="353.5" y="-15.3" font-family="Times,serif" font-style="italic" font-size="14.00">inelastic2/elastic2</text>
</g>
<!-- component2/component4&#45;&gt;inelastic2/elastic2 -->
<g id="edge23" class="edge"><title>component2/component4&#45;&gt;inelastic2/elastic2</title>
<path fill="none" stroke="black" d="M263.728,-88.8241C292.277,-74.7137 333.808,-54.187 364.455,-39.0394"/>
<polygon fill="black" stroke="black" points="366.177,-42.0928 373.591,-34.5241 363.075,-35.8174 366.177,-42.0928"/>
<text text-anchor="middle" x="349.5" y="-58.3" font-family="Times,serif" font-size="14.00"> 0.25</text>
</g>
<!-- inelastic2/elastic1&#45;&gt;component2/component3 -->
<g id="edge27" class="edge"><title>inelastic2/elastic1&#45;&gt;component2/component3</title>
<path fill="none" stroke="black" d="M894.706,-210.814C903.263,-216.332 912.422,-222.929 920,-230 928.068,-237.528 935.729,-246.861 942.09,-255.477"/>
<polygon fill="black" stroke="black" points="939.335,-257.642 947.986,-263.76 945.038,-253.583 939.335,-257.642"/>
<text text-anchor="middle" x="941" y="-234.3" font-family="Times,serif" font-size="14.00"> 1</text>
</g>
<!-- unstable1/unstable2&#45;&gt;component2/component3 -->
<g id="edge28" class="edge"><title>unstable1/unstable2&#45;&gt;component2/component3</title>
<path fill="none" stroke="black" d="M1043.62,-212.222C1039.58,-222.953 1033.16,-236.48 1024,-246 1018.93,-251.269 1012.89,-255.928 1006.56,-259.988"/>
<polygon fill="black" stroke="black" points="1004.65,-257.051 997.826,-265.152 1008.22,-263.077 1004.65,-257.051"/>
<text text-anchor="middle" x="1041" y="-234.3" font-family="Times,serif" font-size="14.00"> 1</text>
</g>
<!-- open2/open3&#45;&gt;component2/component4 -->
<g id="edge24" class="edge"><title>open2/open3&#45;&gt;component2/component4</title>
<path fill="none" stroke="black" d="M246.189,-36.2499C243.538,-48.2478 239.952,-64.4798 236.93,-78.1588"/>
<polygon fill="black" stroke="black" points="233.494,-77.4896 234.754,-88.0092 240.329,-78.9997 233.494,-77.4896"/>
<text text-anchor="middle" x="249" y="-58.3" font-family="Times,serif" font-size="14.00"> 1</text>
</g>
<!-- inelastic2/elastic2&#45;&gt;component2/component4 -->
<g id="edge26" class="edge"><title>inelastic2/elastic2&#45;&gt;component2/component4</title>
<path fill="none" stroke="black" d="M396.961,-36.1173C390.823,-47.3691 381.325,-61.5272 369,-70 354.953,-79.6566 338.459,-86.6505 321.857,-91.7153"/>
<polygon fill="black" stroke="black" points="320.756,-88.3894 312.086,-94.4801 322.662,-95.125 320.756,-88.3894"/>
<text text-anchor="middle" x="391" y="-58.3" font-family="Times,serif" font-size="14.00"> 1</text>
</g>
</g>
</svg>
