<?xml version="1.0" encoding="UTF-8" standalone="no"?>
<!DOCTYPE svg PUBLIC "-//W3C//DTD SVG 1.1//EN"
 "http://www.w3.org/Graphics/SVG/1.1/DTD/svg11.dtd">
<!-- Generated by graphviz version 2.34.0 (20131102.0122)
 -->
<!-- Title: graphname Pages: 1 -->
<svg width="1711pt" height="220pt"
 viewBox="0.00 0.00 1711.00 220.00" xmlns="http://www.w3.org/2000/svg" xmlns:xlink="http://www.w3.org/1999/xlink">
<g id="graph0" class="graph" transform="scale(1 1) rotate(0) translate(4 216)">
<title>graphname</title>
<polygon fill="white" stroke="white" points="-4,4 -4,-216 1707,-216 1707,4 -4,4"/>
<!-- open1/filled1 -->
<g id="node1" class="node"><title>open1/filled1</title>
<ellipse fill="none" stroke="black" cx="59" cy="-18" rx="59.1941" ry="18"/>
<text text-anchor="start" x="21" y="-15.3" font-family="Times,serif" font-style="italic" font-size="14.00">open1/filled1</text>
</g>
<!-- component2/component3 -->
<g id="node2" class="node"><title>component2/component3</title>
<ellipse fill="none" stroke="black" cx="982" cy="-194" rx="105.411" ry="18"/>
<text text-anchor="start" x="908.5" y="-191.3" font-family="Times,serif" font-style="italic" font-size="14.00">component2/component3</text>
</g>
<!-- open2/filled1 -->
<g id="node3" class="node"><title>open2/filled1</title>
<ellipse fill="none" stroke="black" cx="818" cy="-106" rx="59.1941" ry="18"/>
<text text-anchor="start" x="780" y="-103.3" font-family="Times,serif" font-style="italic" font-size="14.00">open2/filled1</text>
</g>
<!-- component2/component3&#45;&gt;open2/filled1 -->
<g id="edge1" class="edge"><title>component2/component3&#45;&gt;open2/filled1</title>
<path fill="none" stroke="black" d="M935.677,-177.662C921.052,-172.169 905.05,-165.467 891,-158 875.546,-149.787 859.485,-138.865 846.375,-129.236"/>
<polygon fill="black" stroke="black" points="848.327,-126.324 838.223,-123.136 844.133,-131.929 848.327,-126.324"/>
<text text-anchor="middle" x="934.5" y="-146.3" font-family="Times,serif" font-size="14.00">FILLEDNESS</text>
</g>
<!-- unstable1/unstable2 -->
<g id="node4" class="node"><title>unstable1/unstable2</title>
<ellipse fill="none" stroke="black" cx="982" cy="-106" rx="86.1637" ry="18"/>
<text text-anchor="start" x="923.5" y="-103.3" font-family="Times,serif" font-style="italic" font-size="14.00">unstable1/unstable2</text>
</g>
<!-- component2/component3&#45;&gt;unstable1/unstable2 -->
<g id="edge2" class="edge"><title>component2/component3&#45;&gt;unstable1/unstable2</title>
<path fill="none" stroke="black" d="M982,-175.597C982,-163.746 982,-147.817 982,-134.292"/>
<polygon fill="black" stroke="black" points="985.5,-134.084 982,-124.084 978.5,-134.084 985.5,-134.084"/>
<text text-anchor="middle" x="1018.5" y="-146.3" font-family="Times,serif" font-size="14.00">STABILITY</text>
</g>
<!-- inelastic2/elastic1 -->
<g id="node5" class="node"><title>inelastic2/elastic1</title>
<ellipse fill="none" stroke="black" cx="1164" cy="-106" rx="77.0154" ry="18"/>
<text text-anchor="start" x="1112.5" y="-103.3" font-family="Times,serif" font-style="italic" font-size="14.00">inelastic2/elastic1</text>
</g>
<!-- component2/component3&#45;&gt;inelastic2/elastic1 -->
<g id="edge3" class="edge"><title>component2/component3&#45;&gt;inelastic2/elastic1</title>
<path fill="none" stroke="black" d="M1017.74,-176.983C1030.76,-171.088 1045.58,-164.309 1059,-158 1080.28,-147.999 1103.83,-136.588 1123.24,-127.099"/>
<polygon fill="black" stroke="black" points="1124.96,-130.153 1132.4,-122.61 1121.88,-123.867 1124.96,-130.153"/>
<text text-anchor="middle" x="1132" y="-146.3" font-family="Times,serif" font-size="14.00">ELASTICITY</text>
</g>
<!-- stable1/unstable2 -->
<g id="node6" class="node"><title>stable1/unstable2</title>
<ellipse fill="none" stroke="black" cx="213" cy="-18" rx="76.5394" ry="18"/>
<text text-anchor="start" x="162" y="-15.3" font-family="Times,serif" font-style="italic" font-size="14.00">stable1/unstable2</text>
</g>
<!-- component1/component4 -->
<g id="node7" class="node"><title>component1/component4</title>
<ellipse fill="none" stroke="black" cx="1471" cy="-194" rx="105.411" ry="18"/>
<text text-anchor="start" x="1397.5" y="-191.3" font-family="Times,serif" font-style="italic" font-size="14.00">component1/component4</text>
</g>
<!-- stable1/stable2 -->
<g id="node8" class="node"><title>stable1/stable2</title>
<ellipse fill="none" stroke="black" cx="1326" cy="-106" rx="66.4165" ry="18"/>
<text text-anchor="start" x="1282.5" y="-103.3" font-family="Times,serif" font-style="italic" font-size="14.00">stable1/stable2</text>
</g>
<!-- component1/component4&#45;&gt;stable1/stable2 -->
<g id="edge4" class="edge"><title>component1/component4&#45;&gt;stable1/stable2</title>
<path fill="none" stroke="black" d="M1431.79,-177.147C1419.41,-171.627 1405.87,-165.038 1394,-158 1379.97,-149.685 1365.39,-139.047 1353.34,-129.639"/>
<polygon fill="black" stroke="black" points="1355.44,-126.845 1345.44,-123.367 1351.09,-132.326 1355.44,-126.845"/>
<text text-anchor="middle" x="1430.5" y="-146.3" font-family="Times,serif" font-size="14.00">STABILITY</text>
</g>
<!-- open1/open3 -->
<g id="node9" class="node"><title>open1/open3</title>
<ellipse fill="none" stroke="black" cx="1471" cy="-106" rx="59.1941" ry="18"/>
<text text-anchor="start" x="1433" y="-103.3" font-family="Times,serif" font-style="italic" font-size="14.00">open1/open3</text>
</g>
<!-- component1/component4&#45;&gt;open1/open3 -->
<g id="edge5" class="edge"><title>component1/component4&#45;&gt;open1/open3</title>
<path fill="none" stroke="black" d="M1471,-175.597C1471,-163.746 1471,-147.817 1471,-134.292"/>
<polygon fill="black" stroke="black" points="1474.5,-134.084 1471,-124.084 1467.5,-134.084 1474.5,-134.084"/>
<text text-anchor="middle" x="1514.5" y="-146.3" font-family="Times,serif" font-size="14.00">FILLEDNESS</text>
</g>
<!-- inelastic1/elastic2 -->
<g id="node10" class="node"><title>inelastic1/elastic2</title>
<ellipse fill="none" stroke="black" cx="1626" cy="-106" rx="77.0154" ry="18"/>
<text text-anchor="start" x="1574.5" y="-103.3" font-family="Times,serif" font-style="italic" font-size="14.00">inelastic1/elastic2</text>
</g>
<!-- component1/component4&#45;&gt;inelastic1/elastic2 -->
<g id="edge6" class="edge"><title>component1/component4&#45;&gt;inelastic1/elastic2</title>
<path fill="none" stroke="black" d="M1518.55,-177.839C1532.93,-172.434 1548.49,-165.738 1562,-158 1575.59,-150.217 1589.35,-139.68 1600.6,-130.204"/>
<polygon fill="black" stroke="black" points="1603.03,-132.728 1608.32,-123.546 1598.46,-127.428 1603.03,-132.728"/>
<text text-anchor="middle" x="1626" y="-146.3" font-family="Times,serif" font-size="14.00">ELASTICITY</text>
</g>
<!-- component1/component3 -->
<g id="node11" class="node"><title>component1/component3</title>
<ellipse fill="none" stroke="black" cx="279" cy="-106" rx="105.411" ry="18"/>
<text text-anchor="start" x="205.5" y="-103.3" font-family="Times,serif" font-style="italic" font-size="14.00">component1/component3</text>
</g>
<!-- component1/component3&#45;&gt;open1/filled1 -->
<g id="edge7" class="edge"><title>component1/component3&#45;&gt;open1/filled1</title>
<path fill="none" stroke="black" d="M216.624,-91.3744C195.134,-85.8194 171.159,-78.6453 150,-70 129.913,-61.7929 108.696,-50.0969 91.8057,-39.9754"/>
<polygon fill="black" stroke="black" points="93.2623,-36.7643 82.9022,-34.5465 89.618,-42.7409 93.2623,-36.7643"/>
<text text-anchor="middle" x="193.5" y="-58.3" font-family="Times,serif" font-size="14.00">FILLEDNESS</text>
</g>
<!-- component1/component3&#45;&gt;stable1/unstable2 -->
<g id="edge8" class="edge"><title>component1/component3&#45;&gt;stable1/unstable2</title>
<path fill="none" stroke="black" d="M265.961,-88.0092C256.379,-75.5235 243.2,-58.3517 232.386,-44.2612"/>
<polygon fill="black" stroke="black" points="234.877,-41.7578 226.012,-35.9555 229.324,-46.0195 234.877,-41.7578"/>
<text text-anchor="middle" x="288.5" y="-58.3" font-family="Times,serif" font-size="14.00">STABILITY</text>
</g>
<!-- inelastic1/elastic1 -->
<g id="node12" class="node"><title>inelastic1/elastic1</title>
<ellipse fill="none" stroke="black" cx="385" cy="-18" rx="77.0154" ry="18"/>
<text text-anchor="start" x="333.5" y="-15.3" font-family="Times,serif" font-style="italic" font-size="14.00">inelastic1/elastic1</text>
</g>
<!-- component1/component3&#45;&gt;inelastic1/elastic1 -->
<g id="edge9" class="edge"><title>component1/component3&#45;&gt;inelastic1/elastic1</title>
<path fill="none" stroke="black" d="M304.127,-88.3436C312.227,-82.7291 321.139,-76.2881 329,-70 339.695,-61.4442 350.958,-51.4082 360.555,-42.5126"/>
<polygon fill="black" stroke="black" points="362.95,-45.0653 367.852,-35.6732 358.163,-39.9579 362.95,-45.0653"/>
<text text-anchor="middle" x="388" y="-58.3" font-family="Times,serif" font-size="14.00">ELASTICITY</text>
</g>
<!-- unstable1/stable2 -->
<g id="node13" class="node"><title>unstable1/stable2</title>
<ellipse fill="none" stroke="black" cx="557" cy="-18" rx="76.5394" ry="18"/>
<text text-anchor="start" x="506" y="-15.3" font-family="Times,serif" font-style="italic" font-size="14.00">unstable1/stable2</text>
</g>
<!-- component2/component4 -->
<g id="node14" class="node"><title>component2/component4</title>
<ellipse fill="none" stroke="black" cx="634" cy="-106" rx="105.411" ry="18"/>
<text text-anchor="start" x="560.5" y="-103.3" font-family="Times,serif" font-style="italic" font-size="14.00">component2/component4</text>
</g>
<!-- component2/component4&#45;&gt;unstable1/stable2 -->
<g id="edge10" class="edge"><title>component2/component4&#45;&gt;unstable1/stable2</title>
<path fill="none" stroke="black" d="M618.787,-88.0092C607.323,-75.2054 591.447,-57.4734 578.659,-43.1901"/>
<polygon fill="black" stroke="black" points="581.197,-40.7784 571.919,-35.6629 575.982,-45.4478 581.197,-40.7784"/>
<text text-anchor="middle" x="639.5" y="-58.3" font-family="Times,serif" font-size="14.00">STABILITY</text>
</g>
<!-- open2/open3 -->
<g id="node15" class="node"><title>open2/open3</title>
<ellipse fill="none" stroke="black" cx="711" cy="-18" rx="59.1941" ry="18"/>
<text text-anchor="start" x="673" y="-15.3" font-family="Times,serif" font-style="italic" font-size="14.00">open2/open3</text>
</g>
<!-- component2/component4&#45;&gt;open2/open3 -->
<g id="edge11" class="edge"><title>component2/component4&#45;&gt;open2/open3</title>
<path fill="none" stroke="black" d="M659.316,-88.4004C666.475,-83.0283 673.955,-76.7103 680,-70 686.723,-62.5373 692.799,-53.4136 697.755,-44.9569"/>
<polygon fill="black" stroke="black" points="700.851,-46.5901 702.67,-36.1524 694.739,-43.178 700.851,-46.5901"/>
<text text-anchor="middle" x="735.5" y="-58.3" font-family="Times,serif" font-size="14.00">FILLEDNESS</text>
</g>
<!-- inelastic2/elastic2 -->
<g id="node16" class="node"><title>inelastic2/elastic2</title>
<ellipse fill="none" stroke="black" cx="866" cy="-18" rx="77.0154" ry="18"/>
<text text-anchor="start" x="814.5" y="-15.3" font-family="Times,serif" font-style="italic" font-size="14.00">inelastic2/elastic2</text>
</g>
<!-- component2/component4&#45;&gt;inelastic2/elastic2 -->
<g id="edge12" class="edge"><title>component2/component4&#45;&gt;inelastic2/elastic2</title>
<path fill="none" stroke="black" d="M706.319,-92.8803C731.164,-87.4511 758.8,-79.9714 783,-70 801.3,-62.4594 820.215,-51.1547 835.357,-41.1035"/>
<polygon fill="black" stroke="black" points="837.497,-43.8813 843.804,-35.3682 833.564,-38.0901 837.497,-43.8813"/>
<text text-anchor="middle" x="856" y="-58.3" font-family="Times,serif" font-size="14.00">ELASTICITY</text>
</g>
<!-- span1/span2 -->
<g id="node17" class="node"><title>span1/span2</title>
<ellipse fill="none" stroke="black" cx="463" cy="-194" rx="59.2173" ry="18"/>
<text text-anchor="start" x="425.5" y="-191.3" font-family="Times,serif" font-style="italic" font-size="14.00">span1/span2</text>
</g>
<!-- span1/span2&#45;&gt;component1/component3 -->
<g id="edge13" class="edge"><title>span1/span2&#45;&gt;component1/component3</title>
<path fill="none" stroke="black" d="M432.203,-178.606C402.185,-164.575 356.258,-143.11 322.514,-127.338"/>
<polygon fill="black" stroke="black" points="323.885,-124.115 313.343,-123.052 320.921,-130.457 323.885,-124.115"/>
<text text-anchor="middle" x="439.5" y="-146.3" font-family="Times,serif" font-size="14.00">LEFT SUPPORT</text>
</g>
<!-- span1/span2&#45;&gt;component2/component4 -->
<g id="edge14" class="edge"><title>span1/span2&#45;&gt;component2/component4</title>
<path fill="none" stroke="black" d="M492.396,-178.216C520.002,-164.332 561.579,-143.423 592.548,-127.847"/>
<polygon fill="black" stroke="black" points="594.43,-130.818 601.791,-123.198 591.285,-124.565 594.43,-130.818"/>
<text text-anchor="middle" x="620" y="-146.3" font-family="Times,serif" font-size="14.00">RIGHT SUPPORT</text>
</g>
</g>
</svg>
